<?xml version="1.0" standalone="no"?>
<!DOCTYPE svg PUBLIC "-//W3C//DTD SVG 1.1//EN" "http://www.w3.org/Graphics/SVG/1.1/DTD/svg11.dtd" >
<svg xmlns="http://www.w3.org/2000/svg">
<metadata></metadata>
<defs>
<font id="tmpolygonregular" horiz-adv-x="825" >
<font-face units-per-em="2048" ascent="1638" descent="-410" />
<missing-glyph horiz-adv-x="1386" />
<glyph horiz-adv-x="2048" />
<glyph horiz-adv-x="2048" />
<glyph unicode="&#xd;" horiz-adv-x="508" />
<glyph unicode=" "  horiz-adv-x="1386" />
<glyph unicode="&#x09;" horiz-adv-x="1386" />
<glyph unicode="&#xa0;" horiz-adv-x="1386" />
<glyph unicode="-" d="M0 1005h1v-1v-1l46 -76l2 -2l1 -1l1 -1h2v-1h2h556q1 0 2 1h1q1 0 2 1h1l2 2q0 1 1 3l24 76q1 4 0 7t-4 5l-65 41h-3v1l-155 41h-4l-405 -82h-1l-1 -1h-1l-1 -1l-1 -1q-1 0 -1 -1l-1 -1v-1q0 -1 -1 -1v-1v-1v-1v-1v-1v-1zM29 996l426 -54h-394zM109 1006l458 33l56 -35 l-19 -61zM164 1029l250 51l96 -25z" />
<glyph unicode="." horiz-adv-x="557" d="M-100 219l1 -2v-1q0 -1 1 -1v-2q1 0 1 -1l1 -1q1 0 2 -1t0 -1l160 -116h1l2 -2h1h1q2 -1 1 -1h3h4q-1 0 1 1h1h1q0 1 1 1q1 1 2 1q0 1 1 1l122 116q2 2 3 5q2 3 2 6v73q0 3 -2 6q1 -1 0 1q-1 1 -1 2q-1 0 -1 1l-2 2h-1l-155 113q-5 3 -10 3q-6 0 -10 -4l-126 -121l-3 -3 v-1q-1 -1 -1 -2v-1q-1 -1 -1 -3v-1v-65q0 1 0 -1v-1zM-69 229v34l129 -52v-75zM-57 291l100 96l126 -92l-95 -56zM91 141v72l91 54v-39z" />
<glyph unicode="A" horiz-adv-x="1905" d="M0 475q1 -1 1 0l127 -464q1 -2 1 0v-2l1 -1v-1l1 -1q1 -1 1 -2h1v-1h1q1 -1 3 -2h1q2 -1 4 -1h2l1253 144h2h1v1h1q1 1 2 1l1 1l110 88h1q0 1 1 1q1 1 1 2l1 1l1 1v1q1 1 1 2v1v2v1v2v1l-110 883v1q0 4 -2 8l-335 896q-1 3 -2 4l-1 1t-3 2q-1 1 0 1q-2 1 -4 1q0 1 -1 1 h-4l-1045 -111h-2t-1 -1h-2l-1 -1l-1 -1l-1 -1h-1v-1q-2 -2 -1 -1q-1 -1 -1 -2l-1 -1v-2q-1 -2 -1 -1v-2v-1v-1443v-2v-2zM29 482v1260l99 -596v-1021zM32 1905l868 -16l467 -739l-1212 14zM157 33v1099l1223 -14v-944zM268 1932l742 79l-107 -91zM928 1901l125 106 l277 -743zM1410 191v706l80 -642z" />
<glyph unicode="B" horiz-adv-x="1741" d="M0 418q1 0 1 -1v-2h1l195 -406q0 1 1 0v-1l2 -2v-1l1 -1h1l1 -1q0 -1 1 -1q1 -1 2 -1h1h1q2 -1 4 -1h3l1159 199q1 0 3 1q3 1 5 2q1 1 0 1q2 1 3 3l1 1q1 2 1 5l88 546q0 -1 0 1v1q0 2 -1 5v1q-1 2 -3 4v1l-44 49v274l-41 627q-1 6 -5 11l-337 312q-5 4 -11 4h-3 l-1001 -178q-5 7 -13 7q-16 0 -16 -16v-1440v-1v-2zM32 425v1307l164 -602v-1044zM36 1839l992 176l326 -303l40 -615l-85 -162l-1084 211zM228 35v1078l1081 -210l133 -148l-84 -526zM1337 920l58 109v-173z" />
<glyph unicode="C" horiz-adv-x="1799" d="M0 552l1 -1v-2l1 -1v-1l117 -189l2 -2l1 -1t3 -2t3 -1l1091 -351l1 -1h3h1q2 0 4 1h1l2 1h1q-1 0 0 1h1l2 2l1 1l1 1v1q2 3 1 1l217 430q1 1 1 2v1q1 1 1 2v1v1119v1t-1 2v1l-161 469q-3 11 -14 11h-4l-1111 -199q-3 -1 -5 -2t-3 -3h-1l-2 -4l-1 -1v-1l-153 -495 q0 1 -1 0v-2v-2v-785v-2zM32 823v513l100 324zM33 565l150 1255l1086 194l156 -453l-214 -1522zM57 519l892 -398l-806 259zM1253 109l172 1226v-885z" />
<glyph unicode="D" horiz-adv-x="1773" d="M0 258q1 0 1 -1v-2q1 0 1 -1l1 -1q1 -2 0 -1l202 -246q-2 2 0 -1q1 0 1 -1h1q0 -1 1 -1l2 -1l1 -1h1h1l1 -1h3h2l1131 168h1h1l4 2q1 1 3 2l1 1t2 3l76 150q0 -2 1 0v1q1 3 1 5l58 1200q0 5 -3 9l-239 397q-4 7 -12 8l-1227 102h-1h-2h-1q-1 0 -2 -1h-1q-1 -1 -2 -1 l-1 -1t-3 -2l-2 -2v-1q-1 -1 -1 -2v-1q-1 -1 -1 -2v-2v-1772v-1v-2zM31 268v1479l170 -1540v-147zM33 2015l1200 -100l233 -386l-57 -1182l-1178 -122zM233 34v160l1164 120l-59 -116z" />
<glyph unicode="E" horiz-adv-x="1602" d="M0 183q0 -1 1 -2v-1t1 -2l98 -170v-1l2 -2v-1h1l1 -1l1 -1h1l1 -1h1h1l1 -1h3h2l1194 130q-1 0 1 0h2q0 1 1 1h2q0 1 1 1l1 1l1 1q1 0 1 1l1 1l1 1q0 1 1 2v1q1 1 1 2v1v2v131v1q0 2 0 1v1v1l-1 1v1l-322 682l221 958q1 7 -3 13t-11 6l-1190 107q1 0 -1 0h-2h-1 q-1 0 -2 -1h-1t-2 -1l-1 -1l-2 -2h-1l-2 -2q1 0 0 -1t-1 -2v-1q-1 -1 -1 -2v-2v-1848v-2zM31 190v1497l67 -726v-886zM33 2015l1153 -103l-215 -934h-843zM129 35v911h844l312 -660zM407 63l885 193v-96z" />
<glyph unicode="F" horiz-adv-x="1553" d="M0 180q1 -1 1 -2l1 -1v-1q1 -1 1 -2q1 -1 1 0l147 -169q1 0 2 -1t0 -1h1l2 -2h1h1q1 0 1 -1h2h1h1h3l1 1h1h1l1 1q1 0 2 1l1 1q1 0 1 1q2 2 1 1l901 1186q1 1 1 2l1 1q0 -1 0 1l283 676q1 3 1 6q0 4 -2 7q-4 7 -12 8l-1331 155h-3h-1t-2 -1h-1t-2 -1h-1l-2 -2h-1 q-1 -2 -2 -3v-1q-1 -1 -1 -2v-1q-1 -1 -1 -2v-1v-1851v-2v-1zM31 189v1561l65 -599l1 -3l1 -2t3 -4q2 -3 0 -1l92 -84l-44 -1003zM33 2015l1291 -150l-271 -648l-928 -48zM149 1139l633 33l-568 -92zM180 64l44 986l804 130z" />
<glyph unicode="G" horiz-adv-x="1749" d="M0 338q-1 -12 11 -15l1216 -322q2 -1 4 -1t4 1h1l4 2t3 3l1 1l2 4l214 657q1 3 1 6q0 6 -6 11l-230 174l-14 1174q0 2 -1 3v1q-1 2 -1 3l-1 1l-2 2q-1 2 -3 3t-4 1v1h-4t-3 -1h-1l-1109 -307q-10 -3 -11 -14zM31 349l70 1365l1073 297l-253 -946v-1v-3v-1v-3l288 -1020z M953 1067l228 854l14 -1038zM963 1021l465 -354l-196 -599z" />
<glyph unicode="H" horiz-adv-x="1579" d="M0 883l98 -731q0 -3 1 -5q0 1 1 0q1 -2 3 -4t4 -3h1t3 -1l1074 -139h2h1q2 0 4 1h1q2 1 4 3h1q1 2 2 3t1 3v1q1 1 1 2v1v1911v3l-2 4v1l-3 3t-4 3h-1l-306 108q-3 1 -5 1h-3l-866 -178q-2 0 -3 -1h-1q-2 -2 -4 -3q1 0 0 -1t-2 -1q0 -1 -1 -3q-1 -3 -1 -5v-971v-2zM30 886 v823l73 -350l92 -439l-83 -649zM33 1844l847 173l290 -102l-100 -728l-848 -247zM130 167l94 742l846 247l100 -1123zM1099 1175l73 530v-1351z" />
<glyph unicode="I" horiz-adv-x="671" d="M0 1320l176 -1306h1v-3v-1q1 0 1 -1q1 -1 0 -1q1 -1 2 -3q0 1 1 0l1 -1q0 -1 1 -1l1 -1h1l1 -1h1h1q1 -1 2 -1h1h3q2 0 3 1h1q3 1 4 3l165 147q2 2 3 5h1q1 3 1 6v1793v4l-2 4v1l-3 3t-4 3l-164 77q-4 2 -7 2q-7 0 -12 -7l-176 -210l-1 -1l-1 -1v-1q-1 -1 -1 -2v-1 q-1 -1 -1 -2v-1v-501v-2zM31 1323v176l62 -635zM32 1817l164 196l144 -67l-149 -1757zM211 54l130 1529v-1413z" />
<glyph unicode="J" horiz-adv-x="1683" d="M0 1106l35 -489q0 -1 1 -2v-1v-2l1 -1q0 -1 1 -1q0 -1 1 -2l1 -1v-1h1l1 -1q2 -1 1 -1l1120 -672q2 -1 1 0l1 -1h1h1l1 -1h2h1h4v1q0 -1 1 0q1 0 2 1h1q2 1 1 1l1 1h1v1h1l1 1t0 1l1 1q-1 -1 0 1h1l187 408q0 1 1 2v1v2l1 2v1608q0 2 -1 3v1q0 2 -2 4v1l-3 3q-1 0 -1 1 l-4 2q1 0 -1 0q-2 1 -4 1h-1343h-4l-1 -1q-1 0 -2 -1h-1l-2 -2h-1q-1 -2 -2 -3t-2 -3v-1q-1 -2 -1 -3v-1v-857zM32 1108v770l39 -97v-1092l-8 -14zM40 1946h1247l-120 -57l-1070 -88zM73 624l20 38l609 -415zM103 694v1075l1052 87v-1880zM1187 20v1843l155 74v-1580z" />
<glyph unicode="K" horiz-adv-x="1667" d="M0 12l1 -1v-1l1 -2l1 -1l1 -1l1 -1q0 -1 1 -1l1 -1t2 -1l1 -1h1l2 -1h3h1359h4l1 1h2l1 1h1l1 1l1 1l1 1q2 2 1 1q1 1 1 2h1l82 144q0 -1 1 0q1 2 0 1l1 1v1q0 2 0 1v1v2v3v1l-336 1725q0 -1 0 1v1q-2 4 -5 6l-1 1q-1 1 -3 2t-4 1l-1107 148h-1h-1h-1h-1t-2 -1h-2t-2 -1 l-1 -1l-2 -2h-1q-1 -1 -2 -3v-1q-1 -1 -1 -2v-1q-1 -1 -1 -2v-1v-2017v-2v-2zM32 217v1614l129 -807zM35 32l154 962l1143 -962h-1297zM35 2013l1051 -140l-897 -817zM203 1026l909 828l323 -1659zM419 842l1018 -687l-66 -114z" />
<glyph unicode="L" horiz-adv-x="1577" d="M0 214q0 1 1 0v-2v-1l1 -1v-1l126 -201q1 -2 3 -4t4 -3h1q3 -1 6 -1h1l1210 116h2l1 1q2 0 4 1q1 1 3 2v1l2 2q1 2 1 1q1 2 1 3v1q1 1 1 3v1v2v1l-1 1q0 2 -1 4l-1087 1900q0 -1 -1 0l-2 4q0 -1 -1 0l-1 1t-2 1l-1 1q-2 1 -4 1h-1h-4q-2 -1 -5 -2h-1l-3 -3l-2 -2 l-246 -366v-1q-1 -1 -1 -2l-1 -2v-1v-3l-1 -1l-2 -1448v-1v-2zM33 457l2 1204l204 304zM34 232l240 1751l1049 -1833zM46 199l1103 -70l-999 -96z" />
<glyph unicode="M" horiz-adv-x="1782" d="M0 243l1 -1v-2q1 0 1 -1v-1h1v-1q1 -1 2 -1q0 -1 1 -1l1 -1q1 0 1 -1h1h1q1 -1 0 -1h1l1355 -326q2 -1 3 -1h2l1 1h1h1q1 1 2 1h1l202 121q-1 -1 1 0l1 1l1 1l1 1l1 1q0 1 1 2v1q1 0 1 1v2v1v3v1v1l-389 1616q0 1 -1 2v1q-1 0 -1 1l-1 1q0 1 -1 1l-1 1l-1 1l-1 1 l-626 367h-1q-2 2 -4 2h-5q-2 -1 -1 0l-4 -2l-1 -1l-3 -3l-1 -1q-1 -2 -1 -3l-542 -1777l-1 -1q1 1 0 -1v-1v-3v-2zM37 268l508 1666l56 -1514zM75 247l539 146l675 -438zM573 1997l590 -347l-534 -1178zM635 414l539 1187l177 -1651zM1222 1430l333 -1382l-173 -103z" />
<glyph unicode="N" horiz-adv-x="1537" d="M0 138q1 0 1 -1q1 -2 0 -1v-1q1 0 1 -1q1 -2 1 -1q0 -1 1 -1q1 -2 1 -1v-1l1 -1t1 0v-1h2l1 -1h2l1 -1l1046 -208h3q3 0 5 1l2 1t3 1l1 2l2 2l1 3l2 2l119 478q2 3 2 7q0 1 -1 3l-60 1450q0 13 -13 15l-869 165q-4 0 -1 0q1 0 -1 0h-3h-1q-1 0 -1 -1h-2h-1v-1h-1l-2 -1 v-1h-1l-1 -1l-1 -1q-1 -2 0 -1q-2 -3 -1 -1l-237 -393v-1q-1 -1 -1 -2v-1q-1 -1 -1 -2v-2v-1498v-1v-2zM32 397v1237l196 325zM34 155l229 1828l902 -1571l-115 -459zM284 2010l823 -156l57 -1375z" />
<glyph unicode="O" horiz-adv-x="2003" d="M0 597l1 -1v-2l1 -1q1 -2 0 -1l346 -584l1 -1q0 -1 1 -1l1 -1v-1l1 -1h1l1 -1h1l1 -1h1l1 -1h1h3h1l948 58h3q-1 0 0 1q2 0 4 1v1q2 0 3 2q-1 -1 1 0q1 2 2 3v1l384 751q2 4 2 7q0 2 -1 5l-384 1163q-3 11 -14 11l-768 44h-2q-8 0 -12 -7l-526 -782q-1 -2 -2 -3v-1 q-1 -2 -1 -3v-1v-652v-2zM32 604v561l314 -801v-290zM34 1248l517 768l747 -43l378 -1146l-374 -734l-928 287zM378 33v313l843 -261z" />
<glyph unicode="P" horiz-adv-x="1667" d="M0 176q0 -3 1 -6t3 -5l151 -160h1v-1q-1 1 1 0v-1h1q1 -1 3 -2h1q1 -1 2 -1h2h1q2 0 5 1h1q-1 0 1 1q1 0 2 1q-1 -1 1 0v1q1 1 1 0v1l1203 1311q2 2 3 4v1q1 2 1 4l23 343v4q-1 2 -1 3l-80 186q0 -1 -1 1l-1 1v1q-1 1 -1 2q-1 0 -1 1q-1 0 -2 1h-1l-1 1t-2 1l-349 101h-1 l-1 1h-1l-775 76h-3h-2l-1 -1h-2l-1 -1h-1l-172 -100q-1 -1 -1 0l-1 -1l-1 -1l-1 -1q-1 -2 0 -1h-1q0 -1 -1 -2q0 -1 -1 -1v-1v-1l-1 -1v-1v-2v-1757zM31 182v1579l120 -648v-1058zM34 1917l925 24l417 -280l-22 -328l-184 -201q-3 1 -6 1l-984 -3zM77 1950l115 66l516 -50z M182 56v1043l960 3zM1056 1913l245 -71l56 -130z" />
<glyph unicode="Q" horiz-adv-x="2092" d="M0 1252q0 -2 1 -3l366 -877q0 1 1 0q0 -2 1 -3l1 -1l3 -3q2 -1 3 -2h1h1l1347 -362v-1h3h1q2 0 4 1h1h1q2 1 3 2l1 1q2 1 1 1q-2 -2 1 1l2 2v2l1 1q1 4 0 1q1 1 1 3l62 817v3q0 2 -1 3l-406 1156q-3 10 -14 11l-812 43q-9 0 -14 -7l-557 -777q-1 -2 -2 -3v-1q-1 -1 -1 -3 v-1v-3v-1zM38 1259l543 757l793 -43l400 -1137l-370 -495zM51 1212l1299 -874l-957 55zM536 353l865 -49l271 -256zM1429 321l342 459l-55 -730z" />
<glyph unicode="R" horiz-adv-x="1692" d="M0 469l1 -2v-1l159 -455q0 -2 0 -1v-1q1 0 1 -1q1 -1 0 -1h1v-1h1q1 -1 1 -2h1v-1h1q1 -1 3 -2q-1 0 1 0h1q2 -1 4 -1h3l1166 225v1q-1 -1 1 0q2 0 2 1h1l2 1l1 1l1 1l1 1l1 1q0 1 1 2v1l1 2v1v2v1v2q0 2 0 1q0 2 0 1l-207 864l204 234q0 1 1 2q0 1 1 1v1q1 1 1 2v1v2 l25 350q0 9 -6 14l-435 329q-5 3 -11 3l-914 -60h-1h-2q0 -1 -1 -1t-2 -1h-1q-1 -1 -2 -1q0 -1 -1 -1q0 -1 -1 -2t-1 0v-1q-1 0 -1 -2h-1q0 -2 -1 -3v-1v-3v-1501v-2zM32 474v1356l127 -560v-1160zM36 1958l889 58l423 -320l-23 -336l-185 -213h-1v1l-1 2l-1 1l-1 1 q1 -1 -1 1q-1 1 -2 1q-2 1 -3 1q-2 1 -3 1l-939 130zM191 59v1194l921 -127l2 -8zM217 40l906 1040l198 -826z" />
<glyph unicode="S" horiz-adv-x="1651" d="M0 407q0 -11 10 -15l974 -391q-1 0 2 0l3 -1h1q3 0 5 1l2 1l2 1q-2 -2 1 0l1 1q1 2 3 3v1q2 2 2 5l357 1706v3v310q0 2 -1 5v1q-1 2 -3 4v1q-2 2 -4 3h-1q-2 1 -5 2q2 0 -1 0h-2l-1104 -46q-8 0 -13 -7l-226 -349q1 1 -1 -2q-1 -2 -1 -3l-1 -2v-2v-1230zM32 418v1177 l942 -1044v-511zM37 1638l215 332l1074 45l-126 -520l-218 -904zM1007 173v382l305 1262l19 79v-172z" />
<glyph unicode="T" horiz-adv-x="1749" d="M0 1414q0 -3 2 -7l727 -1399l2 -2q1 -2 0 -1l3 -3q2 -1 4 -1q2 -1 4 -1h1h3q2 1 3 2l582 308l2 1l1 1l3 3v1q1 2 1 4q1 2 1 1l145 852q1 1 1 2v657q0 2 -1 4v1h-1q0 2 -2 4q-1 2 -3 3q-1 1 -1 0q-1 1 -3 2l-638 201q-3 1 -5 1h-3l-816 -202h-1q-2 -1 -3 -2q-3 -1 -1 0 q-2 -1 -3 -3q0 1 -1 -1l-2 -2v-2t-1 -3q0 -2 0 -1v-418zM30 1418v391l697 -279v-1453zM64 1828l767 189l617 -195l-4 -10l-130 -272l-569 15zM757 40v1484l450 -11l102 -3v-1178zM1339 501v1021l70 148l45 94v-588z" />
<glyph unicode="U" horiz-adv-x="1765" d="M0 311l1 -1v-2t1 -1q1 -3 0 -1l170 -298l1 -1l2 -2v-1h1l1 -1l1 -1h1q1 -1 2 -1t1 -1h4h4l912 227q-1 0 1 0q1 1 2 1l1 1h1q1 0 1 1l1 1h1q0 1 1 1v2h1l364 583l1 1q0 1 1 2v2v1q1 1 1 2v1089l-1 2v1q0 1 -1 3q1 -2 0 1q-1 1 -1 2q0 -1 -1 1l-1 1l-1 1q-1 1 -2 1 q0 1 -1 1t-2 1h-1h-2q-2 1 -1 1l-1447 118h-1h-1h-2q-1 0 -2 -1h-1q-1 -1 -2 -1l-1 -1l-2 -2h-1l-2 -2q1 0 0 -1l-1 -2v-2q-1 -1 -1 -2v-1v-1720v-2zM32 318v1414l138 -1284v-371zM34 2014l1409 -115l-358 -1497l-884 62zM202 37v395l880 -62v-115zM1114 298v85l333 1394 v-946z" />
<glyph unicode="V" horiz-adv-x="1577" d="M0 1500q0 -1 1 -2v-1l615 -1488h1v-2l1 -1h1v-1l1 -1l1 -1l1 -1q-2 1 1 0q1 -1 2 -1q2 -1 1 0v-1h4h3l1 1q3 1 1 0l1 1h1q2 1 1 0l1 1v1q2 1 1 0l1 1l1 1v1l683 1135v1l1 1q0 1 1 2v1v2v884v2v1q0 2 -1 3q0 -1 0 1l-2 2q-1 2 0 1h-1q-1 2 -2 3q-2 0 -4 1t-3 1h-1h-4 l-1298 -320q1 1 -1 0q-1 0 -2 -1h-1l-1 -1l-1 -1l-1 -1l-1 -1t-1 -2l-1 -1q0 -1 -1 -2v-1v-3v-212v-2zM29 1506v145l586 -1197v-366zM36 1704l1252 308l-659 -1520zM644 67v388l654 1508v-809z" />
<glyph unicode="W" horiz-adv-x="1986" d="M0 2030l288 -1709q1 -3 2 -5v-1l3 -3q3 -2 1 -1l148 -121h1q0 -1 1 -1l1 -1h1t1 -1q2 0 1 0l701 -186l1 -1q2 0 1 0h2q2 0 5 1h1q2 1 3 2q3 2 1 0q-4 -2 0 1q2 1 2 2l1 1l1 1q0 1 1 2q0 2 0 1l607 1807q0 -1 1 1v2v1v2v1v2l-1 1v2l-1 1l-1 1l-1 1t-1 2h-1l-2 1l-1 1 q-1 0 -1 1h-1q1 0 -1 0h-1l-4 1l-1 -1q-2 0 -1 0l-670 -164l-1066 373h-1l-1 1h-1q1 0 -1 0h-2q1 0 -1 0h-1q-3 -1 -1 -1q0 1 -1 0h-1h-1v-1q0 1 -1 0l-1 -1h-1v-1q-1 0 -1 -1h-1l-1 -1v-1l-1 -1v-1l-1 -1v-1t-1 -2v-1q0 2 0 -1v-2q0 2 0 -1zM39 2007l1025 -358l-607 -1215z M88 1697l348 -1310v-151l-118 96zM468 215v148l556 -296zM473 396l600 1200l63 -1553zM1103 1645l633 155l-571 -1698z" />
<glyph unicode="X" horiz-adv-x="1626" d="M0 1855l141 -1549q0 1 0 -1t1 -4t2 -3l1 -1l3 -3q-1 1 1 0q1 0 1 -1l755 -292h1q2 -1 4 -1h1h3q-2 0 0 1h1q2 0 3 1l1 1l110 74l1 1q2 1 3 3v1q2 2 2 4l371 1944v1v2v1v3h-1q0 2 -1 3v1l-2 2q1 0 -1 1q-1 1 0 1q0 -1 -1 0l-1 1q-1 0 -2 1h-1q-1 1 -3 1h-4l-1376 -177h-1 l-2 -1q-1 0 -2 -1q-2 -1 -3 -2l-2 -2l-1 -1v-1l-1 -1v-2q-1 0 -1 -1v-1v-3zM34 1812l597 -690l-464 -769zM44 1845l1312 169l-707 -867zM178 315l465 770l247 -1046zM666 1121l700 857l-350 -1833zM724 871l278 -776l-82 -56z" />
<glyph unicode="Y" horiz-adv-x="1692" d="M0 1023l1 -1v-2v-1q1 -1 1 -2l1 -1q0 -1 1 -2l836 -1008v-1q1 0 1 -1l1 -1h1l1 -1h1v-1h2h1q2 -1 1 -1h3t4 1q-2 -1 1 0h1q2 1 3 2h1q1 1 0 1q0 -1 1 0q0 1 1 1q0 1 1 1q-1 0 0 1l1 1v1q1 1 1 2l604 2017h1v4v1q0 2 -1 3v1q0 1 -1 3q-1 1 0 1q0 -1 -1 0q-1 2 -2 3h-1 q-1 1 -3 2q0 1 -1 1q-2 1 -1 0l-2 1h-1h-4l-1440 -226q-2 0 -4 -1l-1 -1q-1 0 -3 -2l-3 -3q1 1 0 -1q-1 -1 -2 -3q1 2 0 -1q-1 -2 -1 -4v-783zM32 1030v741l804 -691v-1020zM53 1796l1371 215l-576 -899zM868 125v958l540 844z" />
<glyph unicode="Z" horiz-adv-x="1831" d="M0 199q1 -1 1 -2v-1q1 -1 1 -2l1 -1l1 -1l1 -1q0 -1 1 -1l1 -1q1 0 2 -1q1 0 1 -1h1h2l1 -1l1300 -186h2q2 0 5 1q-1 0 2 1l2 1l1 1q0 -1 1 1l1 1l1 2q1 2 1 0q-1 -1 0 1q1 3 1 1v1v1l209 746v2v2v1085v2v1q0 2 0 1v1h-1v1t-1 2v1h-1l-1 1t0 1q0 -1 -1 0v1h-1q-1 1 0 1 h-1t-1 1q-2 0 -1 0t-1 0l-1 1h-1l-881 186h-1h-2h-2h-1q-2 -1 -3 -1l-176 -71q-3 -2 -6 -5q-1 -1 -1 0q-1 -2 -2 -5l-452 -1460l-1 -2v-1v-301v-2v-1zM32 216v263l1141 -427zM46 507l1458 1300l-202 -1769zM48 551l431 1393l1008 -109zM533 1970l112 46l565 -119zM1354 211 l155 1357v-804z" />
<glyph unicode="a" horiz-adv-x="1905" d="M0 475q1 -1 1 0l127 -464q1 -2 1 0v-2l1 -1v-1l1 -1q1 -1 1 -2h1v-1h1q1 -1 3 -2h1q2 -1 4 -1h2l1253 144h2h1v1h1q1 1 2 1l1 1l110 88h1q0 1 1 1q1 1 1 2l1 1l1 1v1q1 1 1 2v1v2v1v2v1l-110 883v1q0 4 -2 8l-335 896q-1 3 -2 4l-1 1t-3 2q-1 1 0 1q-2 1 -4 1q0 1 -1 1 h-4l-1045 -111h-2t-1 -1h-2l-1 -1l-1 -1l-1 -1h-1v-1q-2 -2 -1 -1q-1 -1 -1 -2l-1 -1v-2q-1 -2 -1 -1v-2v-1v-1443v-2v-2zM29 482v1260l99 -596v-1021zM32 1905l868 -16l467 -739l-1212 14zM157 33v1099l1223 -14v-944zM268 1932l742 79l-107 -91zM928 1901l125 106 l277 -743zM1410 191v706l80 -642z" />
<glyph unicode="b" horiz-adv-x="1741" d="M0 418q1 0 1 -1v-2h1l195 -406q0 1 1 0v-1l2 -2v-1l1 -1h1l1 -1q0 -1 1 -1q1 -1 2 -1h1h1q2 -1 4 -1h3l1159 199q1 0 3 1q3 1 5 2q1 1 0 1q2 1 3 3l1 1q1 2 1 5l88 546q0 -1 0 1v1q0 2 -1 5v1q-1 2 -3 4v1l-44 49v274l-41 627q-1 6 -5 11l-337 312q-5 4 -11 4h-3 l-1001 -178q-5 7 -13 7q-16 0 -16 -16v-1440v-1v-2zM32 425v1307l164 -602v-1044zM36 1839l992 176l326 -303l40 -615l-85 -162l-1084 211zM228 35v1078l1081 -210l133 -148l-84 -526zM1337 920l58 109v-173z" />
<glyph unicode="c" horiz-adv-x="1799" d="M0 552l1 -1v-2l1 -1v-1l117 -189l2 -2l1 -1t3 -2t3 -1l1091 -351l1 -1h3h1q2 0 4 1h1l2 1h1q-1 0 0 1h1l2 2l1 1l1 1v1q2 3 1 1l217 430q1 1 1 2v1q1 1 1 2v1v1119v1t-1 2v1l-161 469q-3 11 -14 11h-4l-1111 -199q-3 -1 -5 -2t-3 -3h-1l-2 -4l-1 -1v-1l-153 -495 q0 1 -1 0v-2v-2v-785v-2zM32 823v513l100 324zM33 565l150 1255l1086 194l156 -453l-214 -1522zM57 519l892 -398l-806 259zM1253 109l172 1226v-885z" />
<glyph unicode="d" horiz-adv-x="1773" d="M0 258q1 0 1 -1v-2q1 0 1 -1l1 -1q1 -2 0 -1l202 -246q-2 2 0 -1q1 0 1 -1h1q0 -1 1 -1l2 -1l1 -1h1h1l1 -1h3h2l1131 168h1h1l4 2q1 1 3 2l1 1t2 3l76 150q0 -2 1 0v1q1 3 1 5l58 1200q0 5 -3 9l-239 397q-4 7 -12 8l-1227 102h-1h-2h-1q-1 0 -2 -1h-1q-1 -1 -2 -1 l-1 -1t-3 -2l-2 -2v-1q-1 -1 -1 -2v-1q-1 -1 -1 -2v-2v-1772v-1v-2zM31 268v1479l170 -1540v-147zM33 2015l1200 -100l233 -386l-57 -1182l-1178 -122zM233 34v160l1164 120l-59 -116z" />
<glyph unicode="e" horiz-adv-x="1602" d="M0 183q0 -1 1 -2v-1t1 -2l98 -170v-1l2 -2v-1h1l1 -1l1 -1h1l1 -1h1h1l1 -1h3h2l1194 130q-1 0 1 0h2q0 1 1 1h2q0 1 1 1l1 1l1 1q1 0 1 1l1 1l1 1q0 1 1 2v1q1 1 1 2v1v2v131v1q0 2 0 1v1v1l-1 1v1l-322 682l221 958q1 7 -3 13t-11 6l-1190 107q1 0 -1 0h-2h-1 q-1 0 -2 -1h-1t-2 -1l-1 -1l-2 -2h-1l-2 -2q1 0 0 -1t-1 -2v-1q-1 -1 -1 -2v-2v-1848v-2zM31 190v1497l67 -726v-886zM33 2015l1153 -103l-215 -934h-843zM129 35v911h844l312 -660zM407 63l885 193v-96z" />
<glyph unicode="f" horiz-adv-x="1553" d="M0 180q1 -1 1 -2l1 -1v-1q1 -1 1 -2q1 -1 1 0l147 -169q1 0 2 -1t0 -1h1l2 -2h1h1q1 0 1 -1h2h1h1h3l1 1h1h1l1 1q1 0 2 1l1 1q1 0 1 1q2 2 1 1l901 1186q1 1 1 2l1 1q0 -1 0 1l283 676q1 3 1 6q0 4 -2 7q-4 7 -12 8l-1331 155h-3h-1t-2 -1h-1q-1 0 -2 -1h-1l-2 -2h-1 q-1 -2 -2 -3v-1q-1 -1 -1 -2v-1q-1 -1 -1 -2v-1v-1851v-2v-1zM31 189v1561l65 -599l1 -3l1 -2q1 -2 3 -4q2 -3 0 -1l92 -84l-44 -1003zM33 2015l1291 -150l-271 -648l-928 -48zM149 1139l633 33l-568 -92zM180 64l44 986l804 130z" />
<glyph unicode="g" horiz-adv-x="1749" d="M0 338q-1 -12 11 -15l1216 -322q2 -1 4 -1t4 1h1l4 2t3 3l1 1l2 4l214 657q1 3 1 6q0 6 -6 11l-230 174l-14 1174q0 2 -1 3v1q-1 2 -1 3l-1 1l-2 2q-1 2 -3 3t-4 1v1h-4t-3 -1h-1l-1109 -307q-10 -3 -11 -14zM31 349l70 1365l1073 297l-253 -946v-1v-3v-1v-3l288 -1020z M953 1067l228 854l14 -1038zM963 1021l465 -354l-196 -599z" />
<glyph unicode="h" horiz-adv-x="1579" d="M0 883l98 -731q0 -3 1 -5q0 1 1 0q1 -2 3 -4t4 -3h1t3 -1l1074 -139h2h1q2 0 4 1h1q2 1 4 3h1q1 2 2 3t1 3v1q1 1 1 2v1v1911v3l-2 4v1l-3 3t-4 3h-1l-306 108q-3 1 -5 1h-3l-866 -178q-2 0 -3 -1h-1q-2 -2 -4 -3q1 0 0 -1t-2 -1q0 -1 -1 -3q-1 -3 -1 -5v-971v-2zM30 886 v823l73 -350l92 -439l-83 -649zM33 1844l847 173l290 -102l-100 -728l-848 -247zM130 167l94 742l846 247l100 -1123zM1099 1175l73 530v-1351z" />
<glyph unicode="i" horiz-adv-x="671" d="M0 1320l176 -1306h1v-3v-1q1 0 1 -1q1 -1 0 -1q1 -1 2 -3q0 1 1 0l1 -1q0 -1 1 -1l1 -1h1l1 -1h1h1q1 -1 2 -1h1h3q2 0 3 1h1q3 1 4 3l165 147q2 2 3 5h1q1 3 1 6v1793v4l-2 4v1l-3 3t-4 3l-164 77q-4 2 -7 2q-7 0 -12 -7l-176 -210l-1 -1l-1 -1v-1q-1 -1 -1 -2v-1 q-1 -1 -1 -2v-1v-501v-2zM31 1323v176l62 -635zM32 1817l164 196l144 -67l-149 -1757zM211 54l130 1529v-1413z" />
<glyph unicode="j" horiz-adv-x="1683" d="M0 1106l35 -489q0 -1 1 -2v-1v-2l1 -1q0 -1 1 -1q0 -1 1 -2l1 -1v-1h1l1 -1q2 -1 1 -1l1120 -672q2 -1 1 0l1 -1h1h1l1 -1h2h1h4v1q0 -1 1 0q1 0 2 1h1q2 1 1 1l1 1h1v1h1l1 1t0 1l1 1q-1 -1 0 1h1l187 408q0 1 1 2v1v2l1 2v1608q0 2 -1 3v1q0 2 -2 4v1l-3 3q-1 0 -1 1 l-4 2q1 0 -1 0q-2 1 -4 1h-1343h-4l-1 -1q-1 0 -2 -1h-1l-2 -2h-1q-1 -2 -2 -3t-2 -3v-1q-1 -2 -1 -3v-1v-857zM32 1108v770l39 -97v-1092l-8 -14zM40 1946h1247l-120 -57l-1070 -88zM73 624l20 38l609 -415zM103 694v1075l1052 87v-1880zM1187 20v1843l155 74v-1580z" />
<glyph unicode="k" horiz-adv-x="1667" d="M0 12l1 -1v-1l1 -2l1 -1l1 -1l1 -1q0 -1 1 -1l1 -1t2 -1l1 -1h1l2 -1h3h1359h4l1 1h2l1 1h1l1 1l1 1l1 1q2 2 1 1q1 1 1 2h1l82 144q0 -1 1 0q1 2 0 1l1 1v1q0 2 0 1v1v2v3v1l-336 1725q0 -1 0 1v1q-2 4 -5 6l-1 1q-1 1 -3 2t-4 1l-1107 148h-1h-1h-1h-1t-2 -1h-2t-2 -1 l-1 -1l-2 -2h-1q-1 -1 -2 -3v-1q-1 -1 -1 -2v-1q-1 -1 -1 -2v-1v-2017v-2v-2zM32 217v1614l129 -807zM35 32l154 962l1143 -962h-1297zM35 2013l1051 -140l-897 -817zM203 1026l909 828l323 -1659zM419 842l1018 -687l-66 -114z" />
<glyph unicode="l" horiz-adv-x="1577" d="M0 214q0 1 1 0v-2v-1l1 -1v-1l126 -201q1 -2 3 -4t4 -3h1q3 -1 6 -1h1l1210 116h2l1 1q2 0 4 1q1 1 3 2v1l2 2q1 2 1 1q1 2 1 3v1q1 1 1 3v1v2v1l-1 1q0 2 -1 4l-1087 1900q0 -1 -1 0l-2 4q0 -1 -1 0l-1 1t-2 1l-1 1q-2 1 -4 1h-1h-4q-2 -1 -5 -2h-1l-3 -3l-2 -2 l-246 -366v-1q-1 -1 -1 -2l-1 -2v-1v-3l-1 -1l-2 -1448v-1v-2zM33 457l2 1204l204 304zM34 232l240 1751l1049 -1833zM46 199l1103 -70l-999 -96z" />
<glyph unicode="m" horiz-adv-x="1782" d="M0 243l1 -1v-2q1 0 1 -1v-1h1v-1q1 -1 2 -1q0 -1 1 -1l1 -1q1 0 1 -1h1h1q1 -1 0 -1h1l1355 -326q2 -1 3 -1h2l1 1h1h1q1 1 2 1h1l202 121q-1 -1 1 0l1 1l1 1l1 1l1 1q0 1 1 2v1q1 0 1 1v2v1v3v1v1l-389 1616q0 1 -1 2v1q-1 0 -1 1l-1 1q0 1 -1 1l-1 1l-1 1l-1 1 l-626 367h-1q-2 2 -4 2h-5q-2 -1 -1 0l-4 -2l-1 -1l-3 -3l-1 -1q-1 -2 -1 -3l-542 -1777l-1 -1q1 1 0 -1v-1v-3v-2zM37 268l508 1666l56 -1514zM75 247l539 146l675 -438zM573 1997l590 -347l-534 -1178zM635 414l539 1187l177 -1651zM1222 1430l333 -1382l-173 -103z" />
<glyph unicode="n" horiz-adv-x="1537" d="M0 138q1 0 1 -1q1 -2 0 -1v-1q1 0 1 -1q1 -2 1 -1q0 -1 1 -1q1 -2 1 -1v-1l1 -1t1 0v-1h2l1 -1h2l1 -1l1046 -208h3q3 0 5 1l2 1t3 1l1 2l2 2l1 3l2 2l119 478q2 3 2 7q0 1 -1 3l-60 1450q0 13 -13 15l-869 165q-4 0 -1 0q1 0 -1 0h-3h-1q-1 0 -1 -1h-2h-1v-1h-1l-2 -1 v-1h-1l-1 -1l-1 -1q-1 -2 0 -1q-2 -3 -1 -1l-237 -393v-1q-1 -1 -1 -2v-1q-1 -1 -1 -2v-2v-1498v-1v-2zM32 397v1237l196 325zM34 155l229 1828l902 -1571l-115 -459zM284 2010l823 -156l57 -1375z" />
<glyph unicode="o" horiz-adv-x="2003" d="M0 597l1 -1v-2l1 -1q1 -2 0 -1l346 -584l1 -1q0 -1 1 -1l1 -1v-1l1 -1h1l1 -1h1l1 -1h1l1 -1h1h3h1l948 58h3q-1 0 0 1q2 0 4 1v1q2 0 3 2q-1 -1 1 0q1 2 2 3v1l384 751q2 4 2 7q0 2 -1 5l-384 1163q-3 11 -14 11l-768 44h-2q-8 0 -12 -7l-526 -782q-1 -2 -2 -3v-1 q-1 -2 -1 -3v-1v-652v-2zM32 604v561l314 -801v-290zM34 1248l517 768l747 -43l378 -1146l-374 -734l-928 287zM378 33v313l843 -261z" />
<glyph unicode="p" horiz-adv-x="1667" d="M0 176q0 -3 1 -6t3 -5l151 -160h1v-1q-1 1 1 0v-1h1q1 -1 3 -2h1q1 -1 2 -1h2h1q2 0 5 1h1q-1 0 1 1q1 0 2 1q-1 -1 1 0v1q1 1 1 0v1l1203 1311q2 2 3 4v1q1 2 1 4l23 343v4q-1 2 -1 3l-80 186q0 -1 -1 1l-1 1v1q-1 1 -1 2q-1 0 -1 1q-1 0 -2 1h-1l-1 1q-1 1 -2 1 l-349 101h-1l-1 1h-1l-775 76h-3h-2l-1 -1h-2l-1 -1h-1l-172 -100q-1 -1 -1 0l-1 -1l-1 -1l-1 -1q-1 -2 0 -1h-1q0 -1 -1 -2q0 -1 -1 -1v-1v-1l-1 -1v-1v-2v-1757zM31 182v1579l120 -648v-1058zM34 1917l925 24l417 -280l-22 -328l-184 -201q-3 1 -6 1l-984 -3zM77 1950 l115 66l516 -50zM182 56v1043l960 3zM1056 1913l245 -71l56 -130z" />
<glyph unicode="q" horiz-adv-x="2092" d="M0 1252q0 -2 1 -3l366 -877q0 1 1 0q0 -2 1 -3l1 -1l3 -3q2 -1 3 -2h1h1l1347 -362v-1h3h1q2 0 4 1h1h1q2 1 3 2l1 1q2 1 1 1q-2 -2 1 1l2 2v2l1 1q1 4 0 1q1 1 1 3l62 817v3q0 2 -1 3l-406 1156q-3 10 -14 11l-812 43q-9 0 -14 -7l-557 -777q-1 -2 -2 -3v-1q-1 -1 -1 -3 v-1v-3v-1zM38 1259l543 757l793 -43l400 -1137l-370 -495zM51 1212l1299 -874l-957 55zM536 353l865 -49l271 -256zM1429 321l342 459l-55 -730z" />
<glyph unicode="r" horiz-adv-x="1692" d="M0 469l1 -2v-1l159 -455q0 -2 0 -1v-1q1 0 1 -1q1 -1 0 -1h1v-1h1q1 -1 1 -2h1v-1h1q1 -1 3 -2q-1 0 1 0h1q2 -1 4 -1h3l1166 225v1q-1 -1 1 0q2 0 2 1h1l2 1l1 1l1 1l1 1l1 1q0 1 1 2v1l1 2v1v2v1v2q0 2 0 1q0 2 0 1l-207 864l204 234q0 1 1 2q0 1 1 1v1q1 1 1 2v1v2 l25 350q0 9 -6 14l-435 329q-5 3 -11 3l-914 -60h-1h-2q0 -1 -1 -1t-2 -1h-1q-1 -1 -2 -1q0 -1 -1 -1q0 -1 -1 -2t-1 0v-1q-1 0 -1 -2h-1q0 -2 -1 -3v-1v-3v-1501v-2zM32 474v1356l127 -560v-1160zM36 1958l889 58l423 -320l-23 -336l-185 -213h-1v1l-1 2l-1 1l-1 1 q1 -1 -1 1q-1 1 -2 1q-2 1 -3 1q-2 1 -3 1l-939 130zM191 59v1194l921 -127l2 -8zM217 40l906 1040l198 -826z" />
<glyph unicode="s" horiz-adv-x="1651" d="M0 407q0 -11 10 -15l974 -391q-1 0 2 0l3 -1h1q3 0 5 1l2 1l2 1q-2 -2 1 0l1 1q1 2 3 3v1q2 2 2 5l357 1706v3v310q0 2 -1 5v1q-1 2 -3 4v1q-2 2 -4 3h-1q-2 1 -5 2q2 0 -1 0h-2l-1104 -46q-8 0 -13 -7l-226 -349q1 1 -1 -2q-1 -2 -1 -3l-1 -2v-2v-1230zM32 418v1177 l942 -1044v-511zM37 1638l215 332l1074 45l-126 -520l-218 -904zM1007 173v382l305 1262l19 79v-172z" />
<glyph unicode="t" horiz-adv-x="1749" d="M0 1414q0 -3 2 -7l727 -1399l2 -2q1 -2 0 -1l3 -3q2 -1 4 -1q2 -1 4 -1h1h3q2 1 3 2l582 308l2 1l1 1l3 3v1q1 2 1 4q1 2 1 1l145 852q1 1 1 2v657q0 2 -1 4v1h-1q0 2 -2 4q-1 2 -3 3q-1 1 -1 0q-1 1 -3 2l-638 201q-3 1 -5 1h-3l-816 -202h-1q-2 -1 -3 -2q-3 -1 -1 0 q-2 -1 -3 -3q0 1 -1 -1l-2 -2v-2t-1 -3q0 -2 0 -1v-418zM30 1418v391l697 -279v-1453zM64 1828l767 189l617 -195l-4 -10l-130 -272l-569 15zM757 40v1484l450 -11l102 -3v-1178zM1339 501v1021l70 148l45 94v-588z" />
<glyph unicode="u" horiz-adv-x="1765" d="M0 311l1 -1v-2t1 -1q1 -3 0 -1l170 -298l1 -1l2 -2v-1h1l1 -1l1 -1h1q1 -1 2 -1t1 -1h4h4l912 227q-1 0 1 0q1 1 2 1l1 1h1q1 0 1 1l1 1h1q0 1 1 1v2h1l364 583l1 1q0 1 1 2v2v1q1 1 1 2v1089l-1 2v1q0 1 -1 3q1 -2 0 1q-1 1 -1 2q0 -1 -1 1l-1 1l-1 1q-1 1 -2 1 q0 1 -1 1t-2 1h-1h-2q-2 1 -1 1l-1447 118h-1h-1h-2q-1 0 -2 -1h-1q-1 -1 -2 -1l-1 -1l-2 -2h-1l-2 -2q1 0 0 -1l-1 -2v-2q-1 -1 -1 -2v-1v-1720v-2zM32 318v1414l138 -1284v-371zM34 2014l1409 -115l-358 -1497l-884 62zM202 37v395l880 -62v-115zM1114 298v85l333 1394 v-946z" />
<glyph unicode="v" horiz-adv-x="1577" d="M0 1500q0 -1 1 -2v-1l615 -1488h1v-2l1 -1h1v-1l1 -1l1 -1l1 -1q-2 1 1 0q1 -1 2 -1q2 -1 1 0v-1h4h3l1 1q3 1 1 0l1 1h1q2 1 1 0l1 1v1q2 1 1 0l1 1l1 1v1l683 1135v1l1 1q0 1 1 2v1v2v884v2v1q0 2 -1 3q0 -1 0 1l-2 2q-1 2 0 1h-1q-1 2 -2 3q-2 0 -4 1t-3 1h-1h-4 l-1298 -320q1 1 -1 0q-1 0 -2 -1h-1l-1 -1l-1 -1l-1 -1l-1 -1t-1 -2l-1 -1q0 -1 -1 -2v-1v-3v-212v-2zM29 1506v145l586 -1197v-366zM36 1704l1252 308l-659 -1520zM644 67v388l654 1508v-809z" />
<glyph unicode="w" horiz-adv-x="1986" d="M0 2030l288 -1709q1 -3 2 -5v-1l3 -3q3 -2 1 -1l148 -121h1q0 -1 1 -1l1 -1h1t1 -1q2 0 1 0l701 -186l1 -1q2 0 1 0h2q2 0 5 1h1q2 1 3 2q3 2 1 0q-4 -2 0 1q2 1 2 2l1 1l1 1q0 1 1 2q0 2 0 1l607 1807q0 -1 1 1v2v1v2v1v2l-1 1v2l-1 1l-1 1l-1 1t-1 2h-1l-2 1l-1 1 q-1 0 -1 1h-1q1 0 -1 0h-1l-4 1l-1 -1q-2 0 -1 0l-670 -164l-1066 373h-1l-1 1h-1q1 0 -1 0h-2q1 0 -1 0h-1q-3 -1 -1 -1q0 1 -1 0h-1h-1v-1q0 1 -1 0l-1 -1h-1v-1q-1 0 -1 -1h-1l-1 -1v-1l-1 -1v-1l-1 -1v-1t-1 -2v-1q0 2 0 -1v-2q0 2 0 -1zM39 2007l1025 -358l-607 -1215z M88 1697l348 -1310v-151l-118 96zM468 215v148l556 -296zM473 396l600 1200l63 -1553zM1103 1645l633 155l-571 -1698z" />
<glyph unicode="x" horiz-adv-x="1626" d="M0 1855l141 -1549q0 1 0 -1t1 -4t2 -3l1 -1l3 -3q-1 1 1 0q1 0 1 -1l755 -292h1q2 -1 4 -1h1h3q-2 0 0 1h1q2 0 3 1l1 1l110 74l1 1q2 1 3 3v1q2 2 2 4l371 1944v1v2v1v3h-1q0 2 -1 3v1l-2 2q1 0 -1 1q-1 1 0 1q0 -1 -1 0l-1 1q-1 0 -2 1h-1q-1 1 -3 1h-4l-1376 -177h-1 l-2 -1q-1 0 -2 -1q-2 -1 -3 -2l-2 -2l-1 -1v-1l-1 -1v-2q-1 0 -1 -1v-1v-3zM34 1812l597 -690l-464 -769zM44 1845l1312 169l-707 -867zM178 315l465 770l247 -1046zM666 1121l700 857l-350 -1833zM724 871l278 -776l-82 -56z" />
<glyph unicode="y" horiz-adv-x="1692" d="M0 1023l1 -1v-2v-1q1 -1 1 -2l1 -1q0 -1 1 -2l836 -1008v-1q1 0 1 -1l1 -1h1l1 -1h1v-1h2h1q2 -1 1 -1h3t4 1q-2 -1 1 0h1q2 1 3 2h1q1 1 0 1q0 -1 1 0q0 1 1 1q0 1 1 1q-1 0 0 1l1 1v1q1 1 1 2l604 2017h1v4v1q0 2 -1 3v1q0 1 -1 3q-1 1 0 1q0 -1 -1 0q-1 2 -2 3h-1 q-1 1 -3 2q0 1 -1 1q-2 1 -1 0l-2 1h-1h-4l-1440 -226q-2 0 -4 -1l-1 -1q-1 0 -3 -2l-3 -3q1 1 0 -1q-1 -1 -2 -3q1 2 0 -1q-1 -2 -1 -4v-783zM32 1030v741l804 -691v-1020zM53 1796l1371 215l-576 -899zM868 125v958l540 844z" />
<glyph unicode="z" horiz-adv-x="1831" d="M0 199q1 -1 1 -2v-1q1 -1 1 -2l1 -1l1 -1l1 -1q0 -1 1 -1l1 -1q1 0 2 -1q1 0 1 -1h1h2l1 -1l1300 -186h2q2 0 5 1q-1 0 2 1l2 1l1 1q0 -1 1 1l1 1l1 2q1 2 1 0q-1 -1 0 1q1 3 1 1v1v1l209 746v2v2v1085v2v1q0 2 0 1v1h-1v1t-1 2v1h-1l-1 1t0 1q0 -1 -1 0v1h-1q-1 1 0 1 h-1t-1 1q-2 0 -1 0t-1 0l-1 1h-1l-881 186h-1h-2h-2h-1q-2 -1 -3 -1l-176 -71q-3 -2 -6 -5q-1 -1 -1 0q-1 -2 -2 -5l-452 -1460l-1 -2v-1v-301v-2v-1zM32 216v263l1141 -427zM46 507l1458 1300l-202 -1769zM48 551l431 1393l1008 -109zM533 1970l112 46l565 -119zM1354 211 l155 1357v-804z" />
<glyph unicode="&#xad;" d="M0 1005h1v-1v-1l46 -76l2 -2l1 -1l1 -1h2v-1h2h556q1 0 2 1h1q1 0 2 1h1l2 2q0 1 1 3l24 76q1 4 0 7t-4 5l-65 41h-3v1l-155 41h-4l-405 -82h-1l-1 -1h-1l-1 -1l-1 -1q-1 0 -1 -1l-1 -1v-1q0 -1 -1 -1v-1v-1v-1v-1v-1v-1zM29 996l426 -54h-394zM109 1006l458 33l56 -35 l-19 -61zM164 1029l250 51l96 -25z" />
<glyph unicode="&#x2000;" horiz-adv-x="1025" />
<glyph unicode="&#x2001;" horiz-adv-x="2050" />
<glyph unicode="&#x2002;" horiz-adv-x="1025" />
<glyph unicode="&#x2003;" horiz-adv-x="2050" />
<glyph unicode="&#x2004;" horiz-adv-x="683" />
<glyph unicode="&#x2005;" horiz-adv-x="512" />
<glyph unicode="&#x2006;" horiz-adv-x="341" />
<glyph unicode="&#x2007;" horiz-adv-x="341" />
<glyph unicode="&#x2008;" horiz-adv-x="256" />
<glyph unicode="&#x2009;" horiz-adv-x="410" />
<glyph unicode="&#x200a;" horiz-adv-x="113" />
<glyph unicode="&#x2010;" d="M0 1005h1v-1v-1l46 -76l2 -2l1 -1l1 -1h2v-1h2h556q1 0 2 1h1q1 0 2 1h1l2 2q0 1 1 3l24 76q1 4 0 7t-4 5l-65 41h-3v1l-155 41h-4l-405 -82h-1l-1 -1h-1l-1 -1l-1 -1q-1 0 -1 -1l-1 -1v-1q0 -1 -1 -1v-1v-1v-1v-1v-1v-1zM29 996l426 -54h-394zM109 1006l458 33l56 -35 l-19 -61zM164 1029l250 51l96 -25z" />
<glyph unicode="&#x2011;" d="M0 1005h1v-1v-1l46 -76l2 -2l1 -1l1 -1h2v-1h2h556q1 0 2 1h1q1 0 2 1h1l2 2q0 1 1 3l24 76q1 4 0 7t-4 5l-65 41h-3v1l-155 41h-4l-405 -82h-1l-1 -1h-1l-1 -1l-1 -1q-1 0 -1 -1l-1 -1v-1q0 -1 -1 -1v-1v-1v-1v-1v-1v-1zM29 996l426 -54h-394zM109 1006l458 33l56 -35 l-19 -61zM164 1029l250 51l96 -25z" />
<glyph unicode="&#x2012;" d="M0 1005h1v-1v-1l46 -76l2 -2l1 -1l1 -1h2v-1h2h556q1 0 2 1h1q1 0 2 1h1l2 2q0 1 1 3l24 76q1 4 0 7t-4 5l-65 41h-3v1l-155 41h-4l-405 -82h-1l-1 -1h-1l-1 -1l-1 -1q-1 0 -1 -1l-1 -1v-1q0 -1 -1 -1v-1v-1v-1v-1v-1v-1zM29 996l426 -54h-394zM109 1006l458 33l56 -35 l-19 -61zM164 1029l250 51l96 -25z" />
<glyph unicode="&#x2013;" horiz-adv-x="1204" d="M0 1005h2v-1v-1l73 -76q1 -1 2.5 -2l1.5 -1l2 -1h3v-1h3h884q1 0 3 1h2q1 0 3 1h1q2 1 3 2q0 1 2 3l38 76q2 4 0 7q-1 3 -6 5l-103 41h-5v1l-246 41h-7l-643 -82h-2l-1 -1h-2l-1.5 -1l-1.5 -1q-2 0 -2 -1l-1 -1v-1q0 -1 -2 -1v-1v-1v-1v-1v-1v-1zM46 996l677 -54h-626z M173 1006l728 33l89 -35l-30 -61zM261 1029l397 51l152 -25z" />
<glyph unicode="&#x2014;" horiz-adv-x="2228" d="M0 1005h3v-1v-1l146 -76q4 -1 7 -2l3 -1l3 -1h6v-1h7h1767q3 0 6 1h3q3 0 6 1h4l6 2q0 1 3 3l76 76q4 4 0 7q-3 3 -12 5l-207 41h-9v1l-493 41h-13l-1287 -82h-3l-3 -1h-3l-3 -1l-3 -1q-4 0 -4 -1l-3 -1v-1q0 -1 -3 -1v-1v-1v-1v-1v-1v-1zM92 996l1354 -54h-1252z M346 1006l1456 33l178 -35l-61 -61zM521 1029l795 51l305 -25z" />
<glyph unicode="&#x202f;" horiz-adv-x="410" />
<glyph unicode="&#x205f;" horiz-adv-x="512" />
<glyph unicode="&#xe000;" horiz-adv-x="2050" d="M0 0v2050h2050v-2050h-2050z" />
</font>
</defs>
</svg>
